<svg width="28" height="17" viewBox="0 0 28 17" fill="none" xmlns="http://www.w3.org/2000/svg">
<path d="M7.82113 3.33594H7.27734H6.58878L6.34314 3.9792L2.27088 14.6433L1.75278 16H3.20508H4.65527H5.35775L5.596 15.3392L6.36117 13.2168H9.42745L10.2054 15.3435L10.4455 16H11.1445H12.5874H14.0406L13.5214 14.6427L9.4418 3.97864L9.19593 3.33594H8.50781H7.96051L7.89068 3.14418L7.82113 3.33594ZM8.28057 10.0596H7.50994L7.89448 8.99938L8.28057 10.0596ZM16.1539 8.68024L15.0999 4.11115L14.9211 3.33594H14.1255H12.7192H11.4487L11.7472 4.57093L14.3254 15.235L14.5103 16H15.2974H16.5791H17.3281L17.5387 15.2813L19.0111 10.2581L20.4288 15.2721L20.6347 16H21.3911H22.6729H23.4594L23.6447 15.2356L26.2301 4.57156L26.5297 3.33594H25.2583H23.8447H23.0462L22.8695 4.11465L21.8411 8.64679L20.5751 4.06937L20.3723 3.33594H19.6113H18.4248H17.6689L17.4627 4.06322L16.1539 8.68024Z" stroke="#84E8D6" stroke-width="2"/>
</svg>
